<svg width="73" height="51" viewBox="0 0 73 51" fill="none" xmlns="http://www.w3.org/2000/svg">
<path d="M59.1117 9.09399H49.4009L52.2911 40.9233H72.7528V25.2857L59.1117 9.09399Z" fill="#3DA57C"/>
<path d="M59.1116 9.09399V25.2857H72.7527L63.6589 9.09399H59.1116Z" fill="#505381"/>
<path d="M56.8381 0V3.81668L52.2911 9.0941V40.9234H0V27.2823L9.0941 0H56.8381Z" fill="#D0EC43"/>
<path d="M56.8381 0V3.81668L52.291 9.0941V40.9234H30.0886V0H56.8381Z" fill="#53CF55"/>
<path d="M35.3051 16.4889L31.6134 18.6203L30.1129 16.0199H30.0646L28.5641 18.6203L24.8724 16.4889L27.6035 11.7571H32.574L35.3051 16.4889Z" fill="#53CF55"/>
<path d="M35.3049 16.4889L31.6133 18.6203L30.1128 16.0199H30.0886V11.7571H32.5739L35.3049 16.4889Z" fill="#3DA57C"/>
<path d="M37.6539 29.1661H32.2008V24.9032H35.1928L35.2173 24.8607L33.7263 22.2782L37.418 20.1467L40.1395 24.8607L37.6539 29.1661Z" fill="#3DA57C"/>
<path d="M27.9766 29.1661H22.5235L20.0378 24.8607L22.7594 20.1467L26.451 22.2782L24.96 24.8607L24.9846 24.9032H27.9766V29.1661Z" fill="#53CF55"/>
<path d="M13.6411 50.5718C17.7141 50.5718 21.0158 47.27 21.0158 43.197C21.0158 39.1241 17.7141 35.8223 13.6411 35.8223C9.56814 35.8223 6.26636 39.1241 6.26636 43.197C6.26636 47.27 9.56814 50.5718 13.6411 50.5718Z" fill="#505381"/>
<path d="M59.1119 50.5718C63.1849 50.5718 66.4867 47.27 66.4867 43.197C66.4867 39.1241 63.1849 35.8223 59.1119 35.8223C55.039 35.8223 51.7372 39.1241 51.7372 43.197C51.7372 47.27 55.039 50.5718 59.1119 50.5718Z" fill="#3B3E5E"/>
<path d="M11.5098 41.0654H15.7726V45.3283H11.5098V41.0654Z" fill="#6969A2"/>
<path d="M56.9805 41.0654H61.2433V45.3283H56.9805V41.0654Z" fill="#505381"/>
</svg>